<svg xmlns="http://www.w3.org/2000/svg" width="160" height="190" viewBox="0 0 160 190">
  <g id="Group_981" data-name="Group 981" transform="translate(-1454 -1416.298)">
    <g id="Ellipse_4" data-name="Ellipse 4" transform="translate(1454 1446.298)" fill="none" stroke="#666" stroke-width="2">
      <circle cx="80" cy="80" r="80" stroke="none"/>
      <circle cx="80" cy="80" r="79" fill="none"/>
    </g>
    <text id="_3" data-name="3" transform="translate(1534 1433.298)" fill="#666" font-size="18" font-family="ProximaNova-Bold, Proxima Nova" font-weight="700" letter-spacing="0.1em"><tspan x="-5.283" y="0">3</tspan></text>
    <g id="Group_889" data-name="Group 889" transform="translate(922 844.298)">
      <circle id="Ellipse_351" data-name="Ellipse 351" cx="17.355" cy="17.355" r="17.355" transform="translate(595.936 665.582)" fill="none" stroke="#666" stroke-linecap="round" stroke-linejoin="round" stroke-width="2"/>
      <circle id="Ellipse_352" data-name="Ellipse 352" cx="22.429" cy="22.429" r="22.429" transform="translate(590.863 660.509)" fill="none" stroke="#666" stroke-linecap="round" stroke-linejoin="round" stroke-width="2"/>
      <path id="Path_1426" data-name="Path 1426" d="M647.072,682.937a33.78,33.78,0,1,1-33.78-33.779h7.9" fill="none" stroke="#666" stroke-linecap="round" stroke-linejoin="round" stroke-width="2"/>
      <path id="Path_1427" data-name="Path 1427" d="M616.838,653.54l4.382-4.382-4.382-4.382" fill="none" stroke="#666" stroke-linecap="round" stroke-linejoin="round" stroke-width="2"/>
      <g id="Group_888" data-name="Group 888">
        <path id="Path_1428" data-name="Path 1428" d="M610.09,690.363c5.5,1.81,7.691-1.093,7.691-3.054s-1.966-3.355-4.492-4.373-4.486-2.413-4.486-4.373,2.187-4.863,7.691-3.054" fill="none" stroke="#666" stroke-linecap="round" stroke-linejoin="round" stroke-width="2"/>
        <line id="Line_298" data-name="Line 298" y1="2.862" transform="translate(613.292 672.079)" fill="none" stroke="#666" stroke-linecap="round" stroke-linejoin="round" stroke-width="2"/>
        <line id="Line_299" data-name="Line 299" y1="2.862" transform="translate(613.292 690.933)" fill="none" stroke="#666" stroke-linecap="round" stroke-linejoin="round" stroke-width="2"/>
      </g>
    </g>
  </g>
</svg>
