<svg xmlns="http://www.w3.org/2000/svg" width="37.438" height="37.867" viewBox="0 0 37.438 37.867"><g transform="translate(0.919 0.65)"><path d="M268.849,442.637v19.6h-35.6v-19.6" transform="translate(-233.248 -425.67)" fill="none" stroke="#666" stroke-linecap="round" stroke-linejoin="round" stroke-width="1.3"/><line x1="6.775" y2="6.458" transform="translate(0 10.509)" fill="none" stroke="#666" stroke-linecap="round" stroke-linejoin="round" stroke-width="1.3"/><path d="M270.473,411.274l-4.946-4.714-4.946,4.714" transform="translate(-247.727 -406.559)" fill="none" stroke="#666" stroke-linecap="round" stroke-linejoin="round" stroke-width="1.3"/><line x1="6.775" y1="6.458" transform="translate(28.825 10.509)" fill="none" stroke="#666" stroke-linecap="round" stroke-linejoin="round" stroke-width="1.3"/><line x2="12.951" transform="translate(11.483 12.267)" fill="none" stroke="#666" stroke-linecap="round" stroke-linejoin="round" stroke-width="1.3"/><line x2="12.951" transform="translate(11.483 15.918)" fill="none" stroke="#666" stroke-linecap="round" stroke-linejoin="round" stroke-width="1.3"/><line x2="12.951" transform="translate(11.483 8.616)" fill="none" stroke="#666" stroke-linecap="round" stroke-linejoin="round" stroke-width="1.3"/><path d="M251.048,448.237l-17.8,16.967h35.6Z" transform="translate(-233.248 -428.636)" fill="none" stroke="#666" stroke-linecap="round" stroke-linejoin="round" stroke-width="1.3"/><path d="M287.095,452.437l10.277,9.8v-19.6Z" transform="translate(-261.772 -425.67)" fill="none" stroke="#666" stroke-linecap="round" stroke-linejoin="round" stroke-width="1.3"/><path d="M243.525,452.437l-10.277-9.8v19.6Z" transform="translate(-233.248 -425.67)" fill="none" stroke="#666" stroke-linecap="round" stroke-linejoin="round" stroke-width="1.3"/><g transform="translate(6.775 4.715)"><path d="M247.654,435.3V418.465a1.881,1.881,0,0,1,1.881-1.881h18.288a1.881,1.881,0,0,1,1.881,1.881V435.3" transform="translate(-247.654 -416.584)" fill="none" stroke="#666" stroke-linecap="round" stroke-linejoin="round" stroke-width="1.3"/></g></g></svg>