<svg xmlns="http://www.w3.org/2000/svg" width="34.642" height="42.591" viewBox="0 0 34.642 42.591"><g transform="translate(0.65 0.65)"><g transform="translate(15.493)"><path d="M623.21,796.718V784.762c6.56,5.214,9.923,7.737,11.773,9.251a7.165,7.165,0,0,1,2.523,5.635v18.025l-12.679,2.088" transform="translate(-619.658 -781.763)" fill="none" stroke="#fff" stroke-linecap="round" stroke-linejoin="round" stroke-width="1.3"/><rect width="11.942" height="3.289" rx="1.458" transform="translate(14.99 21.837) rotate(90)" fill="none" stroke="#fff" stroke-linecap="round" stroke-linejoin="round" stroke-width="1.3"/><path d="M621.428,783.257l-3.552-3v13.707" transform="translate(-617.876 -780.258)" fill="none" stroke="#fff" stroke-linecap="round" stroke-linejoin="round" stroke-width="1.3"/><path d="M640.679,834.583v2.628l-3.1.753V835.1Z" transform="translate(-624.457 -798.405)" fill="none" stroke="#fff" stroke-linecap="round" stroke-linejoin="round" stroke-width="1.3"/></g><g transform="translate(0 16.881)"><path d="M611.574,805.606a17.458,17.458,0,0,0,11.3,2.7c-.539,4.941-3,19.613-11.3,21.58" transform="translate(-600.278 -805.606)" fill="none" stroke="#fff" stroke-linecap="round" stroke-linejoin="round" stroke-width="1.3"/><path d="M605.908,805.606a17.461,17.461,0,0,1-11.3,2.7c.539,4.941,3,19.613,11.3,21.58" transform="translate(-594.612 -805.606)" fill="none" stroke="#fff" stroke-linecap="round" stroke-linejoin="round" stroke-width="1.3"/></g></g></svg>