<svg xmlns="http://www.w3.org/2000/svg" width="35.094" height="34.5" viewBox="0 0 35.094 34.5"><g transform="translate(0.65 0.65)"><path d="M514.938,806.552s-7.565,9.183-16.9,9.183-16.9-9.183-16.9-9.183,7.565-9.183,16.9-9.183S514.938,806.552,514.938,806.552Z" transform="translate(-481.144 -789.952)" fill="none" stroke="#fff" stroke-linecap="round" stroke-linejoin="round" stroke-width="1.3"/><ellipse cx="9.183" cy="9.183" rx="9.183" ry="9.183" transform="translate(7.714 7.417)" fill="none" stroke="#fff" stroke-linecap="round" stroke-linejoin="round" stroke-width="1.3"/><ellipse cx="3.702" cy="3.702" rx="3.702" ry="3.702" transform="translate(13.195 12.898)" fill="none" stroke="#fff" stroke-linecap="round" stroke-linejoin="round" stroke-width="1.3"/><g transform="translate(0.297)"><path d="M527.992,793.111v-6.878h-6.878" transform="translate(-494.793 -786.232)" fill="none" stroke="#fff" stroke-linecap="round" stroke-linejoin="round" stroke-width="1.3"/><path d="M481.591,793.111v-6.878h6.879" transform="translate(-481.591 -786.232)" fill="none" stroke="#fff" stroke-linecap="round" stroke-linejoin="round" stroke-width="1.3"/><path d="M521.114,832.634h6.878v-6.878" transform="translate(-494.793 -799.434)" fill="none" stroke="#fff" stroke-linecap="round" stroke-linejoin="round" stroke-width="1.3"/><path d="M481.591,825.755v6.878h6.879" transform="translate(-481.591 -799.434)" fill="none" stroke="#fff" stroke-linecap="round" stroke-linejoin="round" stroke-width="1.3"/></g></g></svg>