<svg xmlns="http://www.w3.org/2000/svg" width="37.658" height="41.059" viewBox="0 0 37.658 41.059"><g transform="translate(0.65 0.65)"><path d="M841.2,820.611a7.729,7.729,0,0,0,4.957-13.659V787.639a4.957,4.957,0,0,0-4.957-4.957" transform="translate(-818.42 -782.682)" fill="none" stroke="#fff" stroke-linecap="round" stroke-linejoin="round" stroke-width="1.3"/><path d="M840.224,839.51a7.744,7.744,0,0,1-1.954-.249" transform="translate(-817.44 -801.581)" fill="none" stroke="#fff" stroke-linecap="round" stroke-linejoin="round" stroke-width="1.3"/><path d="M833.76,802.533V787.639a4.957,4.957,0,0,1,4.957-4.957" transform="translate(-815.934 -782.682)" fill="none" stroke="#fff" stroke-linecap="round" stroke-linejoin="round" stroke-width="1.3"/><path d="M839.412,823.357a3.513,3.513,0,1,1,.28,6.7" transform="translate(-817.822 -796.199)" fill="none" stroke="#fff" stroke-linecap="round" stroke-linejoin="round" stroke-width="1.3"/><line x2="4.459" transform="translate(31.9 12.924)" fill="none" stroke="#fff" stroke-linecap="round" stroke-linejoin="round" stroke-width="1.3"/><line x2="4.459" transform="translate(31.9 19.401)" fill="none" stroke="#fff" stroke-linecap="round" stroke-linejoin="round" stroke-width="1.3"/><line x2="4.459" transform="translate(31.9 6.446)" fill="none" stroke="#fff" stroke-linecap="round" stroke-linejoin="round" stroke-width="1.3"/><line y1="17.154" transform="translate(22.783 9.796)" fill="none" stroke="#fff" stroke-linecap="round" stroke-linejoin="round" stroke-width="1.3"/><ellipse cx="9.542" cy="9.542" rx="9.542" ry="9.542" transform="translate(0 20.675)" fill="none" stroke="#fff" stroke-linecap="round" stroke-linejoin="round" stroke-width="1.3"/><path d="M814.231,825.312l3.908,3.908,5.878-5.878" transform="translate(-809.411 -796.264)" fill="none" stroke="#fff" stroke-linecap="round" stroke-linejoin="round" stroke-width="1.3"/></g></svg>