<svg xmlns="http://www.w3.org/2000/svg" width="46.027" height="40.176" viewBox="0 0 46.027 40.176"><g transform="translate(0.65 0.65)"><path d="M0,0H10.16a0,0,0,0,1,0,0V6.018a4.374,4.374,0,0,1-4.374,4.374H4.374A4.374,4.374,0,0,1,0,6.018V0A0,0,0,0,1,0,0Z" transform="translate(23.25 15.052)" fill="none" stroke="#fff" stroke-linecap="round" stroke-linejoin="round" stroke-width="1.3"/><path d="M944.812,809.452v7.35a16.4,16.4,0,1,0-16.064-19.7" transform="translate(-916.482 -784.008)" fill="none" stroke="#fff" stroke-linecap="round" stroke-linejoin="round" stroke-width="1.3"/><line y1="6.722" transform="translate(30.996 8.33)" fill="none" stroke="#fff" stroke-linecap="round" stroke-linejoin="round" stroke-width="1.3"/><line y1="6.722" transform="translate(25.664 8.33)" fill="none" stroke="#fff" stroke-linecap="round" stroke-linejoin="round" stroke-width="1.3"/><line x2="1.751" transform="translate(27.455 20.248)" fill="none" stroke="#fff" stroke-linecap="round" stroke-linejoin="round" stroke-width="1.3"/><g transform="translate(0 19.792)"><ellipse cx="9.542" cy="9.542" rx="9.542" ry="9.542" fill="none" stroke="#fff" stroke-linecap="round" stroke-linejoin="round" stroke-width="1.3"/><g transform="translate(5.412 5.412)"><line x2="8.26" y2="8.26" fill="none" stroke="#fff" stroke-linecap="round" stroke-linejoin="round" stroke-width="1.3"/><line x1="8.26" y2="8.26" fill="none" stroke="#fff" stroke-linecap="round" stroke-linejoin="round" stroke-width="1.3"/></g></g></g></svg>