<svg xmlns="http://www.w3.org/2000/svg" width="249.119" height="31.172" viewBox="0 0 249.119 31.172">
  <path id="Path_49" data-name="Path 49" d="M178.54,31.075l-7.208,3.181c-1.26.519-2.73,1.1-4.156,1.652-.3.1-.61.21-.956.347-1.053.373-2.061.717-3.044,1.032a41.319,41.319,0,0,0-12.662-7.179H181.4c-.962.328-1.951.653-2.859.967m22.246,9.656c-.836,0-1.666-.091-2.485-.169a32.721,32.721,0,0,1-8.608-2.386c-3.366-1.341-6-3.31-9.151-5.564a49.014,49.014,0,0,1,9.823-2.362c3.563-.36,9.637-.406,11.486,4.468a6.358,6.358,0,0,1-1.064,6.013m-48.207-.6a38.1,38.1,0,0,1-8.052.188c-3.055-.279-6.193-.142-8.135-3.412a5.727,5.727,0,0,1,.14-5.715c.223.024.427.048.637.067a25.551,25.551,0,0,1,5.287,1.252,36.2,36.2,0,0,1,11.212,5.8c.427.309,1.016.76,1.642,1.273-1,.226-1.918.43-2.73.551M286.951,27.966H37.832v2.141h96.716c-.779.29-1.561.572-2.321.916-2.673,1.206-4.927,3.439-3.979,7.305,1.016,4.186,6.225,5.029,9.105,5.422,5.459.723,11.118-.1,16.521-1.236.476-.1.97-.22,1.448-.333.8-.153,1.617-.349,2.485-.572.615.516,1.032.849,1.032.849,8.388,6.754,9.7,11.778,8.7,16.418-.288,1.338,3.262-2.684,3.528-6.886.207-3.624-.535-7.982-5.253-12.38-.14-.148-.314-.279-.462-.438.658-.239,1.341-.513,2.058-.787l.013.011c.231-.091.486-.22.742-.312,1.642-.682,3.374-1.424,5.285-2.278,6.813,4.858,13.767,8.141,21.252,7.665,3.67-.239,19.946-3.753,14.323-12.6a5.487,5.487,0,0,0-.72-.768h78.648Z" transform="translate(-37.832 -27.966)" fill="#ed1c24"/>
</svg>
