<svg xmlns="http://www.w3.org/2000/svg" width="40.229" height="41.015" viewBox="0 0 40.229 41.015"><g transform="translate(-1033.184 -783.656)"><g transform="translate(1050.357 794.15)"><path d="M1071.41,807.423v-8.812l-2.784,2.616" transform="translate(-1061.406 -798.611)" fill="none" stroke="#fff" stroke-linecap="round" stroke-linejoin="round" stroke-width="1.3"/><line x2="4.374" transform="translate(0 5.259)" fill="none" stroke="#fff" stroke-linecap="round" stroke-linejoin="round" stroke-width="1.3"/><line y2="4.374" transform="translate(2.187 3.072)" fill="none" stroke="#fff" stroke-linecap="round" stroke-linejoin="round" stroke-width="1.3"/></g><g transform="translate(1038.924 784.564)"><path d="M1066.085,784.564c3.893,2.82,10.8,4.756,16.92,4.041-.808,7.4-4.5,29.377-16.92,32.323" transform="translate(-1049.165 -784.564)" fill="none" stroke="#fff" stroke-linecap="round" stroke-linejoin="round" stroke-width="1.3"/><path d="M1066.085,837.85" transform="translate(-1049.165 -801.486)" fill="none" stroke="#fff" stroke-linecap="round" stroke-linejoin="round" stroke-width="1.3"/><path d="M1058.212,784.564c-3.893,2.82-10.8,4.756-16.92,4.041a83.289,83.289,0,0,0,2.208,11.877" transform="translate(-1041.292 -784.564)" fill="none" stroke="#fff" stroke-linecap="round" stroke-linejoin="round" stroke-width="1.3"/></g><circle cx="9.778" cy="9.778" r="9.778" transform="translate(1033.834 804.466)" fill="none" stroke="#fff" stroke-linecap="round" stroke-linejoin="round" stroke-width="1.3"/><path d="M1041.073,825.361l4,4,6.023-6.023" transform="translate(-2.299 -12.315)" fill="none" stroke="#fff" stroke-linecap="round" stroke-linejoin="round" stroke-width="1.3"/><path d="M1044.338,807.164" transform="translate(-3.336 -7.177)" fill="none" stroke="#fff" stroke-linecap="round" stroke-linejoin="round" stroke-width="1.3"/></g></svg>