<svg xmlns="http://www.w3.org/2000/svg" width="160" height="189" viewBox="0 0 160 189">
  <g id="Group_980" data-name="Group 980" transform="translate(-1121 -1416.298)">
    <g id="Ellipse_3" data-name="Ellipse 3" transform="translate(1121 1445.298)" fill="none" stroke="#666" stroke-width="2">
      <circle cx="80" cy="80" r="80" stroke="none"/>
      <circle cx="80" cy="80" r="79" fill="none"/>
    </g>
    <text id="_2" data-name="2" transform="translate(1201 1433.298)" fill="#666" font-size="18" font-family="ProximaNova-Bold, Proxima Nova" font-weight="700" letter-spacing="0.1em"><tspan x="-5.4" y="0">2</tspan></text>
    <g id="Group_880" data-name="Group 880" transform="translate(728 843.298)">
      <line id="Line_279" data-name="Line 279" x2="13.516" transform="translate(427.696 680.688)" fill="none" stroke="#666" stroke-linecap="round" stroke-linejoin="round" stroke-width="2"/>
      <line id="Line_280" data-name="Line 280" x2="19.405" transform="translate(421.807 691.63)" fill="none" stroke="#666" stroke-linecap="round" stroke-linejoin="round" stroke-width="2"/>
      <line id="Line_281" data-name="Line 281" x2="7.884" transform="translate(433.329 669.747)" fill="none" stroke="#666" stroke-linecap="round" stroke-linejoin="round" stroke-width="2"/>
      <g id="Group_879" data-name="Group 879">
        <line id="Line_282" data-name="Line 282" x2="7.294" y2="4.211" transform="translate(461.79 693.353)" fill="none" stroke="#666" stroke-linecap="round" stroke-linejoin="round" stroke-width="2"/>
        <path id="Path_1404" data-name="Path 1404" d="M514.633,664.214v35.063l-30.365,17.531L453.9,699.277V664.214l30.365-17.531Z" fill="none" stroke="#666" stroke-linecap="round" stroke-linejoin="round" stroke-width="2"/>
        <path id="Path_1405" data-name="Path 1405" d="M453.9,664.214l30.365,17.531v35.063" fill="none" stroke="#666" stroke-linecap="round" stroke-linejoin="round" stroke-width="2"/>
        <line id="Line_283" data-name="Line 283" x1="30.365" y2="17.531" transform="translate(484.267 664.214)" fill="none" stroke="#666" stroke-linecap="round" stroke-linejoin="round" stroke-width="2"/>
        <path id="Path_1406" data-name="Path 1406" d="M503.957,682.911l-9.013,5.221v-12.55L464.579,658.05l9.012-5.2,30.366,17.531Z" fill="none" stroke="#666" stroke-linecap="round" stroke-linejoin="round" stroke-width="2"/>
      </g>
    </g>
  </g>
</svg>
