<svg xmlns="http://www.w3.org/2000/svg" width="29.322" height="27.123" viewBox="0 0 29.322 27.123">
  <path id="Path_1476" data-name="Path 1476" d="M10.812,15.394V27.123H0V17.776c0-4.948.55-8.613,1.833-11A15.165,15.165,0,0,1,9.346,0l2.566,4.032A9.626,9.626,0,0,0,7.33,7.88C6.231,9.53,5.681,12.1,5.681,15.394Zm17.593,0V27.123H17.593V17.776c0-5.131.55-8.613,1.833-11A15.165,15.165,0,0,1,26.94,0l2.382,4.032A9.626,9.626,0,0,0,24.74,7.88a18.28,18.28,0,0,0-1.649,7.514Z" transform="translate(29.322 27.123) rotate(180)" fill="#ed1c24"/>
</svg>
