<svg xmlns="http://www.w3.org/2000/svg" width="34.392" height="43.375" viewBox="0 0 34.392 43.375">
  <g id="_9" data-name="9" transform="translate(0.869 0.65)">
    <path id="Path_651" data-name="Path 651" d="M554.546,466.611h12.608l9.6-7.2a2.437,2.437,0,0,0,.974-1.949h0a2.436,2.436,0,0,0-3.953-1.906l-6.316,5.027" transform="translate(-544.855 -429.254)" fill="none" stroke="#666" stroke-linecap="round" stroke-linejoin="round" stroke-width="1.3"/>
    <path id="Path_652" data-name="Path 652" d="M546.636,461.169l3.04-2.308a3.483,3.483,0,0,1,2.105-.708h1.605a3.484,3.484,0,0,1,2.463,1.02l.721.721h4.9a1.8,1.8,0,0,1,1.8,1.8h0a1.8,1.8,0,0,1-1.8,1.8h-5.929" transform="translate(-540.665 -430.913)" fill="none" stroke="#666" stroke-linecap="round" stroke-linejoin="round" stroke-width="1.3"/>
    <rect id="Rectangle_312" data-name="Rectangle 312" width="5.49" height="12.591" rx="2.745" transform="matrix(0.898, -0.439, 0.439, 0.898, 0, 30.544)" fill="none" stroke="#666" stroke-linecap="round" stroke-linejoin="round" stroke-width="1.3"/>
    <g id="Group_582" data-name="Group 582" transform="translate(7.933 0)">
      <line id="Line_852" data-name="Line 852" x2="2.434" y2="1.405" transform="translate(2.632 15.573)" fill="none" stroke="#666" stroke-linecap="round" stroke-linejoin="round" stroke-width="1.3"/>
      <path id="Path_877" data-name="Path 877" d="M571.075,406.081v11.7l-10.133,5.85-10.133-5.85v-11.7l10.133-5.85Z" transform="translate(-550.81 -400.231)" fill="none" stroke="#666" stroke-linecap="round" stroke-linejoin="round" stroke-width="1.3"/>
      <path id="Path_878" data-name="Path 878" d="M550.81,412.671l10.133,5.85v11.7" transform="translate(-550.81 -406.82)" fill="none" stroke="#666" stroke-linecap="round" stroke-linejoin="round" stroke-width="1.3"/>
      <line id="Line_853" data-name="Line 853" x1="10.133" y2="5.85" transform="translate(10.133 5.85)" fill="none" stroke="#666" stroke-linecap="round" stroke-linejoin="round" stroke-width="1.3"/>
      <path id="Path_879" data-name="Path 879" d="M571.526,414.637l-3.008,1.742v-4.188l-10.133-5.85,3.007-1.736,10.133,5.85Z" transform="translate(-554.823 -402.548)" fill="none" stroke="#666" stroke-linecap="round" stroke-linejoin="round" stroke-width="1.3"/>
    </g>
  </g>
</svg>
