<?xml version="1.0" encoding="utf-8"?>
<!-- Generator: Adobe Illustrator 23.1.0, SVG Export Plug-In . SVG Version: 6.00 Build 0)  -->
<svg version="1.1" id="Capa_1" xmlns="http://www.w3.org/2000/svg" xmlns:xlink="http://www.w3.org/1999/xlink" x="0px" y="0px"
	 viewBox="0 0 512 550.2" style="enable-background:new 0 0 512 550.2;" xml:space="preserve">
<style type="text/css">
	.st0{fill:#AB519A;}
	.st1{fill:#020204;}
</style>
<g>
	<path fill="#ffffff" d="M503.4,177.1c0-1.4-0.3-2.8-0.9-4.1c-1.3-2.7-3.7-4.5-6.3-5L336.7,90.6c-2.6-1.3-5.6-1.3-8.2,0l-161,78
		c-3.1,1.5-5.2,4.6-5.3,8.1v0.1c0,0.1,0,0.2,0,0.3V373c0,3.6,2,6.9,5.3,8.5l161,78c0.1,0,0.1,0,0.2,0.1c0.2,0.1,0.5,0.2,0.7,0.3
		c0.1,0,0.2,0.1,0.3,0.1c0.2,0.1,0.5,0.2,0.7,0.2c0.1,0,0.2,0.1,0.2,0.1c0.2,0.1,0.5,0.1,0.8,0.2c0.1,0,0.2,0,0.2,0
		c0.3,0,0.7,0.1,1,0.1c0.3,0,0.7,0,1-0.1c0.1,0,0.2,0,0.2,0c0.2,0,0.5-0.1,0.8-0.2c0.1,0,0.2-0.1,0.2-0.1c0.2-0.1,0.5-0.2,0.7-0.2
		c0.1,0,0.2-0.1,0.3-0.1c0.2-0.1,0.5-0.2,0.7-0.3c0.1,0,0.1,0,0.2-0.1l161.5-78.3c3.2-1.6,5.3-4.9,5.3-8.5V177.3
		C503.4,177.2,503.4,177.2,503.4,177.1z M332.5,109.5l139.6,67.7l-51.4,25l-139.6-67.7L332.5,109.5z M323.1,436l-69.3-33.6v-69.3
		c0-4.3-3.5-7.8-7.8-7.8c-4.3,0-7.8,3.5-7.8,7.8v61.7L180.9,367V192.3l142.2,69V436z M332.5,244.9l-139.6-67.7l66.7-32.3l139.6,67.7
		L332.5,244.9z M484.6,366.7L341.9,436V261.2l66.8-32.4v45.7c0,5.2,4.2,9.4,9.4,9.4c5.2,0,9.4-4.2,9.4-9.4v-54.9l57.1-27.7V366.7z"
		/>
	<path fill="#ffffff" d="M121.6,312.7H19.1c-4.3,0-7.8,3.5-7.8,7.8s3.5,7.8,7.8,7.8h102.5c4.3,0,7.8-3.5,7.8-7.8S125.9,312.7,121.6,312.7z"/>
	<path fill="#ffffff" d="M121.2,267.5H50.8c-4.3,0-7.8,3.5-7.8,7.8s3.5,7.8,7.8,7.8h70.4c4.3,0,7.8-3.5,7.8-7.8S125.5,267.5,121.2,267.5z"/>
	<path fill="#ffffff" d="M18.7,233.7h102.5c4.3,0,7.8-3.5,7.8-7.8s-3.5-7.8-7.8-7.8H18.7c-4.3,0-7.8,3.5-7.8,7.8S14.3,233.7,18.7,233.7z"/>
</g>
</svg>
