<?xml version="1.0" encoding="utf-8"?>
<!-- Generator: Adobe Illustrator 23.1.0, SVG Export Plug-In . SVG Version: 6.00 Build 0)  -->
<svg version="1.1" id="Capa_1" xmlns="http://www.w3.org/2000/svg" xmlns:xlink="http://www.w3.org/1999/xlink" x="0px" y="0px"
	 viewBox="0 0 512 550.2" style="enable-background:new 0 0 512 550.2;" xml:space="preserve">
<style type="text/css">
	.st0{fill:#AB519A;}
	.st1{fill:#020204;}
</style>
<g>
	<path fill="#ffffff" d="M289.1,277.2c5.1-2.3,7.3-8.4,5-13.4c-2.3-5.1-8.4-7.3-13.4-5c-17.5,8-36.1,7.1-51.2-2.5c-14.7-9.4-23.4-25.4-23.4-42.7
		c0-27.9,22.7-50.7,50.7-50.7s50.7,22.7,50.7,50.7c0,5.6-4.5,10.1-10.1,10.1c-5.1,0-9.9-3.9-10.1-10c0-0.1,0-0.1,0-0.2
		c0-16.8-13.6-30.4-30.4-30.4s-30.4,13.6-30.4,30.4s13.6,30.4,30.4,30.4c7.8,0,14.9-2.9,20.3-7.8c5.4,4.8,12.5,7.8,20.3,7.8
		c16.8,0,30.4-13.6,30.4-30.4c0-39.1-31.8-71-71-71s-71,31.8-71,71c0,24.3,12.2,46.6,32.8,59.8C239.4,286.8,265.2,288.2,289.1,277.2
		z M266.7,215.2c-0.8,4.8-5,8.5-10,8.5c-5.6,0-10.1-4.5-10.1-10.1s4.5-10.1,10.1-10.1c5.2,0,9.5,3.9,10.1,9
		C266.6,213.3,266.6,214.3,266.7,215.2z"/>
	<path fill="#ffffff" d="M408.7,235.2c0-2.6-1.1-5.2-3-7.2l-37.6-37.6v-78.2c0-5.6-4.5-10.1-10.1-10.1H155.3c-5.6,0-10.1,4.5-10.1,10.1v78.2
		L107.6,228c0,0-0.1,0.1-0.1,0.1c-1.9,2-2.9,4.5-2.9,7c0,0,0,0,0,0v182.5c0,16.8,13.7,30.4,30.4,30.4h243.3
		c16.8,0,30.4-13.7,30.4-30.4L408.7,235.2C408.7,235.2,408.7,235.2,408.7,235.2z M368.2,219.1l16.1,16.1l-16.1,16.1V219.1z
		 M165.4,194.7C165.4,194.7,165.4,194.7,165.4,194.7v-72.3h182.5v72.3c0,0,0,0,0,0v76.9L293,326.4h-72.7l-54.9-54.9V194.7z
		 M145.2,219.1v32.2l-16.1-16.1L145.2,219.1z M124.9,413.5V259.7l76.9,76.9L124.9,413.5z M139.2,427.8l81.1-81.1H293l81.1,81.1
		H139.2z M388.5,413.5l-76.9-76.9l76.9-76.9V413.5z"/>
</g>
</svg>
