<?xml version="1.0" encoding="utf-8"?>
<!-- Generator: Adobe Illustrator 23.1.0, SVG Export Plug-In . SVG Version: 6.00 Build 0)  -->
<svg version="1.1" id="Capa_1" xmlns="http://www.w3.org/2000/svg" xmlns:xlink="http://www.w3.org/1999/xlink" x="0px" y="0px"
	 viewBox="0 0 512 550.2" style="enable-background:new 0 0 512 550.2;" xml:space="preserve">
<style type="text/css">
	.st0{fill:#AB519A;}
	.st1{fill:#020204;}
</style>
<g>
	<path fill="#ffffff" d="M102.7,364.8H82.6v-26.6c0-5.5-4.5-10-10-10s-10,4.5-10,10v36.6c0,5.5,4.5,10,10,10h30.1c5.5,0,10-4.5,10-10
		S108.2,364.8,102.7,364.8z"/>
	<path fill="#ffffff" d="M42.4,274.2l121.3,0.7c5.5,0,10-4.4,10.1-9.9c0.1-5.6-4.4-10.1-9.9-10.1l-121.3-0.7c-0.1,0-0.1,0-0.1,0
		c-5.5,0-10,4.4-10,9.9C32.4,269.7,36.9,274.2,42.4,274.2z"/>
	<path fill="#ffffff" d="M153.4,310.3c0-5.5-4.5-10-10-10H22.1c-5.5,0-10,4.5-10,10s4.5,10,10,10h121.3C148.9,320.3,153.4,315.9,153.4,310.3z"/>
	<path fill="#ffffff" d="M62.8,228.8h121.3c5.5,0,10-4.5,10-10s-4.5-10-10-10H62.8c-5.5,0-10,4.5-10,10S57.3,228.8,62.8,228.8z"/>
	<path fill="#ffffff" d="M499.5,215.3L427.9,156c-1.8-1.5-4-2.3-6.4-2.3h-84.2v-36c0-5.5-4.5-10-10-10H72.6c-5.5,0-10,4.5-10,10v73.2
		c0,5.5,4.5,10,10,10s10-4.5,10-10v-63.2h234.8v237.1h-82c-5.5,0-10,4.5-10,10s4.5,10,10,10h122.1c5.5,0,10-4.5,10-10s-4.5-10-10-10
		h-20.1V173.7H418l65.2,54l-0.7,136.9h-10.4c-5.5,0-10,4.5-10,10s4.5,10,10,10h20.3c5.5,0,10-4.4,10-9.9l0.8-151.6
		C503.1,220.1,501.8,217.2,499.5,215.3z"/>
	<path fill="#ffffff" d="M425.2,202.6c-1.8-1.7-4.2-2.6-6.7-2.6h-51.3c-5.5,0-10,4.5-10,10v82c0,5.5,4.5,10,10,10h81.4c5.5,0,10-4.5,10-10v-54.9
		c0-2.8-1.2-5.5-3.3-7.4L425.2,202.6z M438.6,282h-61.4v-62.1h37.4l24,21.6V282z"/>
	<path fill="#ffffff" d="M169.4,352.5c-12,0-23.4,4.7-32,13.2c-8.6,8.6-13.4,19.8-13.4,31.8s4.7,23.2,13.4,31.8c8.7,8.5,20,13.2,32,13.2
		c24.6,0,44.6-20.2,44.6-45S194,352.5,169.4,352.5z M169.4,422.5c-13.8,0-25.4-11.4-25.4-25s11.6-25,25.4-25
		c13.6,0,24.6,11.2,24.6,25S183,422.5,169.4,422.5z"/>
	<path fill="#ffffff" d="M413.6,352.5c-12,0-23.4,4.7-32,13.2c-8.6,8.6-13.4,19.8-13.4,31.8s4.7,23.2,13.4,31.8c8.7,8.5,20,13.2,32,13.2
		c24.6,0,44.6-20.2,44.6-45S438.2,352.5,413.6,352.5z M413.6,422.5c-13.8,0-25.4-11.4-25.4-25s11.6-25,25.4-25
		c13.6,0,24.6,11.2,24.6,25S427.2,422.5,413.6,422.5z"/>
</g>
</svg>
