<?xml version="1.0" encoding="utf-8"?>
<!-- Generator: Adobe Illustrator 23.1.0, SVG Export Plug-In . SVG Version: 6.00 Build 0)  -->
<svg version="1.1" id="Capa_1" xmlns="http://www.w3.org/2000/svg" xmlns:xlink="http://www.w3.org/1999/xlink" x="0px" y="0px"
	 viewBox="0 0 512 550.2" style="enable-background:new 0 0 512 550.2;" xml:space="preserve">
<style type="text/css">
	.st0{fill:#AB519A;}
	.st1{fill:#020204;}
</style>
<g>
	<path fill="#ffffff" d="M10.2,177.3v195.4c0,3.6,2.1,6.9,5.3,8.5l161.5,78.3c0.1,0.1,0.1,0.1,0.2,0.1c0.2,0.2,0.5,0.2,0.7,0.3
		c0.2,0,0.2,0.1,0.3,0.1c0.2,0.1,0.5,0.2,0.7,0.2c0.1,0,0.2,0.1,0.2,0.1c0.2,0.1,0.5,0.2,0.8,0.2c0.1,0,0.2,0,0.2,0
		c0.3,0.1,0.7,0.1,1,0.1s0.7-0.1,1-0.1c0.1,0,0.2,0,0.2,0c0.2-0.1,0.5-0.1,0.8-0.2c0.1,0,0.2-0.1,0.2-0.1c0.2-0.1,0.5-0.2,0.7-0.2
		c0.2,0,0.2-0.1,0.3-0.1c0.2-0.2,0.5-0.2,0.7-0.3c0.1-0.1,0.1-0.1,0.2-0.1l161-78c3.3-1.6,5.3-4.9,5.3-8.5V177.2c0-0.2,0-0.2,0-0.3
		v-0.1c-0.2-3.5-2.2-6.7-5.3-8.1l-161-78c-2.6-1.3-5.6-1.3-8.2,0L17.6,167.9c-2.7,0.5-5.1,2.3-6.3,5c-0.6,1.3-0.9,2.7-0.9,4.1
		C10.3,177.2,10.3,177.2,10.2,177.3z M232.6,134.4L93,202.1l-51.4-25l139.6-67.7L232.6,134.4z M190.6,261.2l142.2-69V367l-57.3,27.8
		v-61.7c0-4.3-3.5-7.8-7.8-7.8s-7.8,3.5-7.8,7.8v69.3L190.6,436V261.2z M114.5,212.5l139.6-67.7l66.7,32.3l-139.6,67.7L114.5,212.5z
		 M29.1,192l57.1,27.7v54.9c0,5.2,4.2,9.4,9.4,9.4c5.2,0,9.4-4.2,9.4-9.4v-45.7l66.8,32.4V436L29.1,366.7V192z"/>
	<path fill="#ffffff" d="M392.1,312.7h102.5c4.3,0,7.8,3.5,7.8,7.8s-3.5,7.8-7.8,7.8H392.1c-4.3,0-7.8-3.5-7.8-7.8S387.8,312.7,392.1,312.7z"/>
	<path fill="#ffffff" d="M392.5,267.5h70.4c4.3,0,7.8,3.5,7.8,7.8s-3.5,7.8-7.8,7.8h-70.4c-4.3,0-7.8-3.5-7.8-7.8S388.2,267.5,392.5,267.5z"/>
	<path fill="#ffffff" d="M495,233.7H392.5c-4.3,0-7.8-3.5-7.8-7.8s3.5-7.8,7.8-7.8H495c4.3,0,7.8,3.5,7.8,7.8S499.3,233.7,495,233.7z"/>
</g>
</svg>
