<?xml version="1.0" encoding="utf-8"?>
<!-- Generator: Adobe Illustrator 23.1.0, SVG Export Plug-In . SVG Version: 6.00 Build 0)  -->
<svg version="1.1" id="Capa_1" xmlns="http://www.w3.org/2000/svg" xmlns:xlink="http://www.w3.org/1999/xlink" x="0px" y="0px"
	 viewBox="0 0 512 550.2" style="enable-background:new 0 0 512 550.2;" xml:space="preserve">
<style type="text/css">
	.st0{fill:#AB519A;}
	.st1{fill:#020204;}
</style>
<g>
	<path fill="000000" d="M424,227.5c-12-11.2-31.6-11.2-43.7,0c-3.7,3.4-27.3,25.5-31,28.8l-0.8-110.2c-0.1-11.9-10.5-21.5-23.3-21.5h-33.4v-16
		c0-4.4-3.8-8-8.6-8c-4.7,0-8.6,3.6-8.6,8v16h-47.6v-16c0-4.4-3.8-8-8.6-8s-8.6,3.6-8.6,8v16h-48.2v-16.4c0-4.4-3.8-8-8.6-8
		s-8.6,3.6-8.6,8v16.4h-31.9c-17,0-30.9,12.9-30.9,28.7v269.4c0,15.9,13.8,28.7,30.9,28.7h205.8c17,0,30.9-12.9,30.9-28.7v-85.1
		l74.6-69.5C436.1,256.9,436.1,238.7,424,227.5z M328.8,422.7L328.8,422.7c0,5.3-4.6,9.6-10.3,9.6H112.7c-5.7,0-10.3-4.3-10.3-9.6
		V153.4c0-5.3,4.6-9.6,10.3-9.6h31.9V158c0,4.4,3.8,8,8.6,8s8.6-3.6,8.6-8v-14.3H210v14.7c0,4.4,3.8,8,8.6,8s8.6-3.6,8.6-8v-14.7
		h47.6v14.7c0,4.4,3.8,8,8.6,8c4.7,0,8.6-3.6,8.6-8v-14.7h24.5c6.9,0,12.5,5.2,12.5,11.6l0,120.1c0,0-30.4,28.3-30.4,28.3
		l-14.5,13.5c-1.1,1.1-2,2.3-2.5,3.7l-14.6,40.6c-1.2,3.4-0.3,7.2,2.5,9.8c2.8,2.6,6.8,3.5,10.5,2.3l43.7-13.5
		c1.5-0.5,2.9-1.3,4-2.3l1.2-1.2V422.7z M305.7,324.1l14.6,13.5l-5.6,5.2l-21.8,6.8l7.3-20.3L305.7,324.1z M334.8,324.1l-14.6-13.5
		c7.7-7.2,42.2-39.3,49.5-46.1l14.6,13.5L334.8,324.1z M409.4,254.6l-10.6,9.9l-14.6-13.5l10.6-9.9c4-3.7,10.5-3.7,14.6,0
		C413.4,244.8,413.5,250.8,409.4,254.6z"/>
	<path fill="000000" d="M133.3,239.5h144.1c5.7,0,10.3-4.3,10.3-9.6s-4.6-9.6-10.3-9.6H133.3c-5.7,0-10.3,4.3-10.3,9.6S127.6,239.5,133.3,239.5z"
		/>
	<path fill="000000" d="M133.3,277.8h102.9c5.7,0,10.3-4.3,10.3-9.6c0-5.3-4.6-9.6-10.3-9.6H133.3c-5.7,0-10.3,4.3-10.3,9.6
		C123,273.5,127.6,277.8,133.3,277.8z"/>
	<path fill="000000" d="M133.3,316.1h102.9c5.7,0,10.3-4.3,10.3-9.6c0-5.3-4.6-9.6-10.3-9.6H133.3c-5.7,0-10.3,4.3-10.3,9.6
		C123,311.8,127.6,316.1,133.3,316.1z"/>
	<path fill="000000" d="M246.5,344.9c0-5.3-4.6-9.6-10.3-9.6H133.3c-5.7,0-10.3,4.3-10.3,9.6c0,5.3,4.6,9.6,10.3,9.6h102.9
		C241.9,354.4,246.5,350.2,246.5,344.9z"/>
	<path fill="000000" d="M277.3,394h-61.7c-5.7,0-10.3,4.3-10.3,9.6c0,5.3,4.6,9.6,10.3,9.6h61.7c5.7,0,10.3-4.3,10.3-9.6
		C287.6,398.3,283,394,277.3,394z"/>
</g>
</svg>
