<?xml version="1.0" encoding="utf-8"?>
<!-- Generator: Adobe Illustrator 23.1.0, SVG Export Plug-In . SVG Version: 6.00 Build 0)  -->
<svg version="1.1" id="Warstwa_1" xmlns="http://www.w3.org/2000/svg" xmlns:xlink="http://www.w3.org/1999/xlink" x="0px" y="0px"
	 viewBox="0 0 170.1 170.1" style="enable-background:new 0 0 170.1 170.1;" xml:space="preserve">
<path fill="#fff" d="M154.8,92.6l-16.6-27.7l16.3-26.2L90.9,2L73.6,30l-56,32.3l0.1,0.1l-0.1,0L16,133.8l61.3,35.4l61.2-35.4v-31.2L154.8,92.6z
	 M94.5,122.2L81.7,99.7l51.9-30L146,90.4L94.5,122.2z M96.5,46.3L75.1,60.3L55.5,47.8l21.8-12.6L96.5,46.3z M104.7,79L81,64
	l21.6-14.1L128.8,65L104.7,79z M98.4,82.6L77.3,94.8L25.6,65l23.6-13.6L98.4,82.6z M93.1,10.6L145.6,41l-12,19.4L81.1,30.1
	L93.1,10.6z M23.8,71.3l50.3,29V160l-51.6-29.8L23.8,71.3z M132,130.1L80.5,160v-49.5l11.8,20.6l39.8-24.6V130.1z"/>
</svg>
