<?xml version="1.0" encoding="utf-8"?>
<!-- Generator: Adobe Illustrator 23.1.0, SVG Export Plug-In . SVG Version: 6.00 Build 0)  -->
<svg version="1.1" id="Layer_1" xmlns="http://www.w3.org/2000/svg" xmlns:xlink="http://www.w3.org/1999/xlink" x="0px" y="0px"
	 viewBox="0 0 942.8 333.7" style="enable-background:new 0 0 942.8 333.7;" xml:space="preserve">
<style type="text/css">
	.Arched_x0020_Green{fill:url(#SVGID_1_);stroke:#FFFFFF;stroke-width:0.25;stroke-miterlimit:1;}
	.st0{fill:#E3000F;}
	.st1{fill:#FFFFFF;}
</style>
<linearGradient id="SVGID_1_" gradientUnits="userSpaceOnUse" x1="-92.6211" y1="675.9214" x2="-91.914" y2="675.2143">
	<stop  offset="0" style="stop-color:#18A236"/>
	<stop  offset="0.9831" style="stop-color:#23381C"/>
</linearGradient>
<g>
	<g>
		<g>
			<g>
				<path class="st0" d="M226.7,167c0,92-50.8,166.6-113.4,166.6C50.7,333.6,0,259.1,0,167C0,75,50.7,0.4,113.4,0.4
					C176,0.4,226.7,75,226.7,167z"/>
			</g>
		</g>
		<path class="st1" d="M846.3,1.9h20.8v125.2c0,4.7,1.4,9.1,7,9.1c2.2,0,5.6-0.4,8.4-1.3l4,18.7c-5.6,1.7-10.8,2.5-16.6,2.5
			c-14.9,0-23.6-8.6-23.6-28.2V24l0,0V1.9z M902.7,1.9h20.8v125.2c0,4.7,1.4,9.1,7,9.1c2.2,0,5.6-0.4,8.4-1.3l4,18.7
			c-5.6,1.7-10.8,2.5-16.6,2.5c-14.9,0-23.6-8.6-23.6-28.2V24l0,0V1.9z M426.6,112.5V71.7l0,0V52.3h20.8v59.1
			c0,18.3,8.3,25.7,25.5,25.7c17.2,0,25.5-7,25.5-25.3V52.3h20.8v60.2c0,32.1-19.9,44.9-46.7,44.9
			C445.5,157.4,426.6,144.4,426.6,112.5z M412.4,134.2c-3,0.9-6.8,1.3-9.2,1.3c-5.6,0-10-2.1-14-5.5c-8-6.9-23.6-40.2-23.6-40.2
			c20.6-4.4,35.9-19.5,35.9-42.8c0-22.2-16.2-39.2-33.3-44.4C361.2,0.4,351.6,0,345.2,0c-10.9,0-45.5,0-45.5,0l0,155.1h21.2V94.5
			h22.4c0,0,21.5,43.2,32.5,52.3c6.6,5.4,14.2,9.4,24.3,9.4c6.2,0,12.8-1.1,16.6-2.8L412.4,134.2z M341.5,74.2h-20.6
			c0,0,0-5.5,0-21.6c0-11.5,0-31.6,0-31.6s23.8,0,31.2,0c10.6,0,16.6,4.4,19.7,7.7c4.6,4.8,7.4,11.6,7.4,18.7
			c0,11.5-6.6,21.5-16.8,24.7C356.9,73.8,350.1,74.2,341.5,74.2z M543.5,127.8c9.4,5.5,16.4,9.3,30.6,9.3c11.2,0,22.6-2.3,22.6-12.1
			c0-1.9-0.6-3.6-1.6-4.9C586.8,110,550.6,117,539,97c-2.2-3.8-3.6-8.9-3.6-15.1c0-21.7,17.2-32.3,38.8-32.3c14.4,0,24,3.4,38.4,9.8
			l-7,18.1c-13.4-5.3-18.7-7.6-30.6-7.6c-12.4,0-17.8,4.2-17.8,10.8c0,1.9,0.4,3.4,1.2,4.7c6.6,11.5,40,5.1,54,20
			c3.8,4.1,6.2,9.8,6.2,18.1c0,25.1-20.8,34-43.8,34c-16.8,0-28.2-4.5-39.6-11.5L543.5,127.8z M641.5,127.8
			c9.4,5.5,16.4,9.3,30.6,9.3c11.2,0,22.6-2.3,22.6-12.1c0-1.9-0.6-3.6-1.6-4.9C684.8,110,648.6,117,637,97
			c-2.2-3.8-3.6-8.9-3.6-15.1c0-21.7,17.2-32.3,38.8-32.3c14.4,0,24,3.4,38.4,9.8l-7,18.1c-13.4-5.3-18.6-7.6-30.6-7.6
			c-12.4,0-17.8,4.2-17.8,10.8c0,1.9,0.4,3.4,1.2,4.7c6.6,11.5,40,5.1,54,20c3.8,4.1,6.2,9.8,6.2,18.1c0,25.1-20.8,34-43.8,34
			c-16.8,0-28.2-4.5-39.6-11.5L641.5,127.8z M730.1,105.7c0-35.1,23.4-56.1,55.8-56.1c22,0,41.2,10,41.2,31.2
			c0,20.6-18,32.8-52,32.8c-7.4,0-15.2-0.2-22.2-1.1c1,16.2,13.6,24.7,32.4,24.7c13.2,0,22.4-3,33-7.9l6.6,18.1
			c-11.8,6.2-24.6,10-42,10C750.7,157.4,730.1,137.2,730.1,105.7z M773.8,94c24.8,0,31.4-7.2,31.4-13.8c0-6.8-7.8-10.4-19.2-10.4
			c-16.6,0-29.2,7.9-32.4,23.2C760.3,93.8,767.7,94,773.8,94z M299.7,177.6h21.2v64.3h72.5v-64.3h21.2v153.9h-21.2v-69.4h-72.5v69.4
			h-21.2V177.6z M431.5,279.7c0-30,21.6-54.1,54.3-54.1c32.3,0,53.9,24.1,53.9,54.1c0,29.9-21.4,53.9-54.3,53.9
			C453.1,333.7,431.5,309.6,431.5,279.7z M517.9,279.7c0-19.4-12.8-33.9-32.1-33.9c-19.6,0-32.5,14.7-32.5,33.9
			c0,19,12.8,33.7,32.1,33.7C505,313.4,517.9,298.7,517.9,279.7z M804.9,304c9.4,5.5,16.5,9.4,30.7,9.4c11.2,0,22.7-2.3,22.7-12.2
			c0-1.9-0.6-3.6-1.6-4.9c-8.4-10.2-44.7-3.2-56.3-23.2c-2.2-3.8-3.6-9-3.6-15.1c0-21.7,17.2-32.4,38.9-32.4
			c14.4,0,24.1,3.4,38.5,9.8l-7,18.1c-13.4-5.3-18.7-7.7-30.7-7.7c-12.4,0-17.8,4.3-17.8,10.9c0,1.9,0.4,3.4,1.2,4.7
			c6.6,11.5,40.1,5.1,54.1,20c3.8,4.1,6.2,9.8,6.2,18.1c0,25.2-20.8,34.1-43.9,34.1c-16.8,0-28.3-4.5-39.7-11.5L804.9,304z
			 M608.8,225.6c-13.3,0-23.7,4-32.7,10.8v-58.5h-20.7v137.5c0,0,20.7,16.3,52.9,16.3c32.9,0,53.4-22.2,53.4-52
			C661.8,249.7,641.1,225.6,608.8,225.6z M608.4,311.5c-19.2,0-31.1-8.4-31.1-8.4s0-13.2,0-23.4c0-19.2,11.9-33.9,31.5-33.9
			c19.2,0,31.1,14.5,31.1,33.9C640,298.7,628.1,311.5,608.4,311.5z M730.7,225.6c-13.3,0-23.7,4-32.7,10.8v-58.5h-20.7v137.5
			c0,0,20.7,16.3,52.9,16.3c32.9,0,53.3-22.2,53.3-52C783.6,249.7,763,225.6,730.7,225.6z M730.3,311.5c-20.9,0-31.1-8.4-31.1-8.4
			s0-13.5,0-23.4c0-19.2,11.9-33.9,31.5-33.9c19.2,0,31.1,14.5,31.1,33.9C761.8,298.7,749.9,311.5,730.3,311.5z"/>
		<g>
			<path class="st1" d="M66,71.5c6.1,1,12.5-0.2,18.4-1.6c4.5-1.1,9.7-2.9,14.2-4.4c4.8,4,15.4,14.4,20.3,18.9
				c0.6,0.6,1.6,1.7,3,2.9c-1.3,0.4-2.6,0.7-3.9,1.1l0,0c-3,0.9-5.4,1.6-8,2.5c1.7,1,3.6,2.4,3.6,2.4c3.3-1,7.2-2.1,11.2-3.2
				c0.8,0.8,1.7,1.6,2.4,2.2l0,0c0,0,0.1,0.1,0.1,0.1c0.4,0.3,0.8,0.7,1.1,0.9c0,0,0,0,0.1,0c7,5.5,15.8,9.3,25.9,11
				c8.8,1.5,17.7-0.3,26-3.4c5-1.8,9.3-5.3,7.5-11.2c-1.9-6.4-11.7-7.7-17.2-8.3c-10.3-1.1-20.9,0.1-31.1,1.9
				c-1.2,0.2-2.3,0.4-3.5,0.6c-1.4-1.2-2.8-2.4-4.1-3.4c-5.6-4.7-17.8-15.1-23.4-19.5c1.8-0.7,3.9-1.6,5.8-2.3
				c0.4-0.1,0.9-0.3,1.4-0.5c1.5-0.5,2.9-1,4.3-1.5c5.4,4.4,13.3,9.7,24.1,11.9c6.6,1.4,13.3-0.3,19.5-3.1c3.8-1.7,6.9-4.8,5.6-10.3
				c-1.4-5.9-8.8-7.1-12.8-7.6c-7.7-1-15.7,0.1-23.2,1.7c-0.7,0.1-1.4,0.3-2.1,0.5h0c-1.1,0.2-2.3,0.5-3.5,0.8
				c-0.9-0.7-1.5-1.2-1.5-1.2c-11.8-9.5-13.7-16.6-12.3-23.1c0.4-1.9-4.6,3.8-4.9,9.7c-0.3,5.1,0.7,11.2,7.4,17.4
				c0.2,0.2,0.4,0.4,0.7,0.6c-0.9,0.4-1.9,0.7-2.9,1.1l0,0c-0.3,0.1-0.7,0.3-1.1,0.4c-2.3,0.9-4.8,2-7.4,3.2
				C96.2,51.9,86.4,47.3,75.9,48c-5.2,0.3-28.1,5.3-20.2,17.7C57.7,68.8,63,71,66,71.5z M157.4,86.6c5.8,0.4,11.7,0.2,15.3,5.2
				c2,2.7,1.6,6.3-0.3,8.7c-0.4,0-0.8-0.1-1.2-0.1c-3.4-0.3-6.7-1-10-1.9c-7.7-2.1-11.8-5-18.6-9.1h0c-0.9-0.7-1.8-1.4-2.7-2.3
				C146.1,86.4,151.6,86.2,157.4,86.6z M135.2,52.7c3.9-0.5,7.6-0.6,11.3-0.3c4.3,0.4,8.7,0.2,11.4,4.8c1.5,2.5,1.2,5.7-0.2,8
				c-0.3,0-0.6-0.1-0.9-0.1c-2.5-0.3-5-1-7.4-1.8c-5.8-1.9-10.7-4.3-15.8-8.2c-0.6-0.4-1.4-1.1-2.3-1.8
				C132.7,53.1,134,52.9,135.2,52.7z M67.3,51.8c1.2,0,2.3,0.1,3.5,0.3c4.1,0.4,8.2,1.8,12.1,3.3c4.7,1.9,8.4,4.7,12.9,7.8
				c-4.3,1.4-9.4,2.9-13.8,3.3c-5,0.5-13.6,0.6-16.2-6.3C64.7,57.4,65.5,53.9,67.3,51.8z"/>
			<path class="st1" d="M193.3,174c-5-4.1-11.3-7.4-19.5-8.1l-2.1,6c12.5,2.2,18.4,13.2,19.1,21c0.8,8-2.2,17.1-10.5,18.9
				c-11.2,2.3-18.7-6.4-19.7-16.3c-0.7-6.9,2.5-17,4.9-23.5c0,0,3.1-8.1,3.1-8.1c2.7-7.1,5.4-14.1,8.2-21.2c0.8-2.2,3-7.5,3.2-7.9
				c1.9-4.8,4.7-11,8.9-11c3.5,0,6.9,2.3,6.9,2.3l3.7-6.4c0,0-4.1-2.4-8.6-2.5c-8-0.2-14.4,2.5-19.3,8.3c-1.6,1.6-2.7,3.6-3.8,5.7
				c-3.6,6.7-5.9,14.4-8.7,21.6c-1.3,3.3-2.8,7.1-4.3,11.6h-18.2c1.9-12.1,3.7-43.7-24.7-66.7c-10.7-8.7-24.1-16.7-43-16.7
				c-0.3,0-0.8,0-1.4,0.1c-6,0.3-11.9,1.3-17.6,3.4c-4.1,1.6-8.5,3.5-10.1,7.9c-2.1,5.8,5.9,9.5,10,10.8c9,2.9,19.3,2.4,28.6,1.1
				c4.7-0.6,7.7-1.1,12-2.1c-1.3-1.1-3.4-2.2-3.4-2.2c-5.8,0.9-11.3,0.9-17.9-0.1c-4.4-0.6-9.3-1.9-12.6-4.9c-1.2-1-1.9-2.4-2.3-3.9
				c-0.3-1.4,0-2.7,0.7-3.9c0.3-0.5,0.7-1,1.2-1.4c0.1-0.1,0.1-0.1,0.2-0.2c0.1,0,0.3,0,0.4,0c0,0,0.1,0,0.1,0
				C70,86,82.3,91.8,93.3,98.9l3.1,2.1c0.2,0.1,0.4,0.3,0.7,0.4c10.8,7.5,18.3,17.6,23.2,29.8c5.1,12.9,12.2,45.3-17.7,67.6
				c0.9,1.4,3.5,4.6,5.2,6.5c10.4-5.2,21.3-16.6,27.7-33.7h16.7c-4.5,11.2-6.8,21.9-2.7,31.5c8.6,20.5,40.5,17.9,49.2,0.6
				C203.3,194.2,201.1,180.5,193.3,174z"/>
			<path class="st1" d="M162.3,261.4c-6.1-1-12.5,0.2-18.4,1.6c-4.5,1.1-9.7,2.9-14.2,4.4c-4.8-4-15.4-14.4-20.3-18.9
				c-0.6-0.6-1.6-1.7-3-2.9c1.3-0.3,2.6-0.7,4-1.1c0,0,0,0,0,0c3-0.9,5-1.5,7.6-2.4c-2.1-1.3-3.7-2.5-3.7-2.5
				c-3.2,1-6.7,2.1-10.8,3.1c-0.8-0.8-1.7-1.5-2.5-2.2h0c-0.1,0-0.1-0.1-0.2-0.1c-0.4-0.3-0.8-0.7-1.1-0.9c0,0,0,0-0.1,0
				c-7-5.5-15.8-9.3-25.9-11c-8.8-1.5-17.7,0.3-26,3.4c-5,1.8-9.3,5.3-7.5,11.2c1.9,6.4,11.7,7.7,17.2,8.3
				c10.3,1.1,20.9-0.2,31.1-1.9c1.1-0.2,2.3-0.4,3.5-0.6c1.4,1.2,2.8,2.4,4.1,3.4c5.6,4.7,17.8,15.1,23.4,19.5
				c-1.8,0.7-3.8,1.6-5.8,2.3c-0.4,0.1-0.9,0.3-1.4,0.5c-1.5,0.5-2.9,1-4.3,1.5c-5.4-4.4-13.3-9.6-24.1-12
				c-6.6-1.4-13.3,0.3-19.5,3.1c-3.8,1.7-6.9,4.8-5.6,10.3c1.4,5.9,8.8,7.1,12.8,7.6c7.7,1,15.7-0.1,23.2-1.7
				c0.7-0.1,1.4-0.3,2.1-0.5c0,0,0,0,0,0c1.1-0.2,2.3-0.5,3.5-0.8c0.9,0.7,1.5,1.2,1.5,1.2c11.8,9.5,13.7,16.6,12.3,23.1
				c-0.4,1.9,4.6-3.8,5-9.7c0.3-5.1-0.7-11.2-7.4-17.4c-0.2-0.2-0.4-0.4-0.7-0.6c0.9-0.4,1.9-0.7,2.9-1.1l0,0c0.3-0.1,0.7-0.3,1-0.5
				c2.3-0.9,4.8-2,7.4-3.2c9.6,6.8,19.4,11.5,29.9,10.8c5.2-0.3,28.1-5.3,20.2-17.7C170.6,264.1,165.2,261.9,162.3,261.4z
				 M70.9,246.3c-5.8-0.4-11.7-0.2-15.3-5.2c-2-2.7-1.6-6.3,0.3-8.7c0.4,0,0.8,0.1,1.2,0.1c3.4,0.3,6.7,1,10,1.9
				c7.7,2.1,11.8,5,18.6,9.2c0,0,0,0,0,0c0.9,0.7,1.8,1.5,2.7,2.3C82.1,246.5,76.6,246.7,70.9,246.3z M93.1,280.2
				c-3.9,0.5-7.6,0.6-11.3,0.3c-4.3-0.4-8.7-0.2-11.5-4.8c-1.5-2.5-1.2-5.8,0.2-8c0.3,0,0.6,0.1,0.9,0.1c2.5,0.3,5,1,7.4,1.8
				c5.8,1.9,10.7,4.3,15.8,8.2c0.6,0.4,1.4,1.1,2.3,1.8C95.5,279.8,94.2,280,93.1,280.2z M161,281.1c-1.2,0-2.3-0.1-3.5-0.3
				c-4.1-0.4-8.2-1.8-12.1-3.3c-4.7-1.9-8.4-4.7-12.9-7.8c4.3-1.4,9.4-2.9,13.8-3.3c5-0.5,13.6-0.6,16.2,6.3
				C163.5,275.5,162.7,279,161,281.1z"/>
			<path class="st1" d="M188.1,52.9c-20.2-29.6-46.7-45.9-74.7-45.9c-28,0-54.6,16.3-74.7,45.9C17.9,83.3,6.6,123.8,6.6,167
				c0,43.2,11.4,83.7,32.1,114.1c20.1,29.6,46.7,45.9,74.7,45.9c28,0,54.6-16.3,74.7-45.9c20.7-30.4,32.1-70.9,32.1-114.1
				C220.1,123.8,208.8,83.3,188.1,52.9z M184.8,278.9c-19.4,28.5-44.7,44.2-71.4,44.2c-26.7,0-52-15.7-71.4-44.2
				C21.7,249.2,10.6,209.4,10.6,167c0-42.4,11.1-82.1,31.4-111.9C61.3,26.6,86.7,11,113.3,11c26.7,0,52,15.7,71.4,44.2
				c20.2,29.7,31.4,69.5,31.4,111.9C216.1,209.4,205,249.2,184.8,278.9z"/>
			<path class="st1" d="M177.9,227.2c-8-1.1-16.5,0.2-24.4,1.7c-5.5,1-9.2,1.8-14.2,3.1c1.4,1.1,3.6,2.3,3.6,2.3
				c4.9-1.2,8.4-1.6,13.9-2.1c6.6-0.5,17.9-0.6,21.4,6.6c1.4,3,0.4,6.7-2,8.9c-1.6,0-3.1-0.1-4.6-0.3c-5.5-0.5-10.8-1.9-16-3.5
				c-6.3-2-12.5-4.8-18.4-8.2h0l-1.8-1.1c-12.2-7.3-23.3-16.9-32.2-27.3c-7.5-8.8-12.7-18.8-17.4-29.2c10.6-3,20.1-9.4,23.9-19.6
				c5.9-18.8-9.6-34.8-26.9-39.4c-19.1-5-42.1,0.7-49.7,19c-4.8,11.5-0.9,24.6,13.1,34.1l4.8-11.5c-7.9-6.6-12-15.8-8.4-24.5
				c5.9-14.3,23.2-14.2,35-9.1c13.6,5.9,22,20.2,17.7,33.7c-1.9,5-5.6,10.1-11,11.8c-4.8,1.5-10.3,0.8-15.2-0.8
				c4.7-12.2,8.3-21.9,12.9-34.1c-2.8-2.3-7.7-4.8-11.4-5.8c-0.1,0.1-9.1,23.8-14,36.8c-3,7.9-6,15.9-9.1,23.8
				c-0.8,2.1-1.6,4.1-2.4,6.2c-1.9,4.8-4.7,11-8.9,11c-3.5,0-6.9-2.3-6.9-2.3l-3.7,6.4c0,0,4.1,2.4,8.6,2.5
				c12.2,0.3,20.2-6.3,25.6-19.7c2.2-5.6,4.3-11.2,6.5-16.8c1.4,0.1,2.8,0.3,4.2,0.3c6.7,14.9,14.5,28.3,26.4,39.8
				c7,6.8,15.4,13.6,24.6,19.1h0l2,1.2c0,0,0,0,0,0c12.9,7.4,27.3,12.3,41.5,11.6c6.8-0.3,37.1-5.6,26.7-18.6
				C188.8,230,181.8,227.7,177.9,227.2z"/>
		</g>
	</g>
</g>
</svg>
