<?xml version="1.0" encoding="utf-8"?>
<!-- Generator: Adobe Illustrator 23.1.0, SVG Export Plug-In . SVG Version: 6.00 Build 0)  -->
<svg version="1.1" id="Warstwa_1" xmlns="http://www.w3.org/2000/svg" xmlns:xlink="http://www.w3.org/1999/xlink" x="0px" y="0px"
	 viewBox="0 0 170.1 170.1" style="enable-background:new 0 0 170.1 170.1;" xml:space="preserve">
<g>
	<path fill="#fff" d="M84.7,79.3L5.4,23.9v90.6v10.8V152l20.4-20.2l0.1-0.1c0,0,0,0,0,0l0.4-0.5c0,0,0.1-0.1,0.1-0.1l0.3-0.1l0,0l0,0l0.2-0.2
		c0,0,0.1,0,0.1-0.1l0.3-0.2c0.2-0.1,0.4-0.1,0.6-0.1c1.3,0,129.8,0.2,133.5,0.2h3V23.9L84.7,79.3z M158.6,124.5
		c-19.9,0-129.3-0.2-130.5-0.2c-1.2,0-2.3,0.3-3.3,0.8c0,0-0.1,0-0.1,0c0,0-0.1,0-0.1,0.1c-0.1,0-0.2,0.1-0.2,0.1
		c-0.1,0-0.1,0.1-0.2,0.1c-0.1,0-0.2,0.1-0.3,0.2c-0.1,0-0.1,0.1-0.2,0.1c-0.1,0.1-0.3,0.2-0.4,0.3c0,0,0,0,0,0
		c-0.5,0.3-0.9,0.7-1.2,1l-10.7,10.6v-12.2v-10.8V35.4l73.3,51.2l73.9-51.3V124.5z"/>
	<path fill="#fff" d="M160.6,21.1H9.4L85,73.3L160.6,21.1z M141.4,27.1L85,66L28.6,27.1H141.4z"/>
	<rect fill="#fff" x="102.9" y="102" width="48.3" height="6"/>
	<rect fill="#fff" x="103.4" y="88" width="48.3" height="6"/>
</g>
</svg>
