<?xml version="1.0" encoding="utf-8"?>
<!-- Generator: Adobe Illustrator 23.1.0, SVG Export Plug-In . SVG Version: 6.00 Build 0)  -->
<svg version="1.1" id="Warstwa_1" xmlns="http://www.w3.org/2000/svg" xmlns:xlink="http://www.w3.org/1999/xlink" x="0px" y="0px"
	 viewBox="0 0 170.1 170.1" style="enable-background:new 0 0 170.1 170.1;" xml:space="preserve">
<g>
	<path fill="#fff" d="M133.4,37.9l-14.7-27L49.2,37.6l0.1,0.3h-47v122.3H168v-42.8V79.9v-42H133.4z M115.9,18.4l10.6,19.5H65.1L115.9,18.4z
		 M162,111.4h-56.5V85.9H162V111.4z M99.5,79.9v37.5H162v36.8H8.3V43.9H162v36H99.5z"/>
	<path fill="#fff" d="M121.7,108.7c5.4,0,9.9-4.4,9.9-9.9s-4.4-9.9-9.9-9.9s-9.9,4.4-9.9,9.9S116.3,108.7,121.7,108.7z M121.7,94.9
		c2.1,0,3.9,1.7,3.9,3.9s-1.7,3.9-3.9,3.9s-3.9-1.7-3.9-3.9S119.6,94.9,121.7,94.9z"/>
	<path fill="#fff" d="M57.8,97.1V76.2c4.6,0.2,9.6,1.7,14.1,4.6l2-4.7c-4.2-2.9-10.1-4.7-16-4.9v-9h-3.9v9.1c-12.1,0.9-17.5,7.5-17.5,15.1
		c0,10.4,8.8,13.1,17.5,15.2v20.8c-6.6-0.4-13-3.1-16.6-6.6l-2.3,4.5c3.9,4,11.1,6.8,18.9,7.2v9h3.9v-9.1c12.6-0.7,18.3-7.3,18.3-15
		C76.1,101.8,66.7,99.3,57.8,97.1z M53.9,96.1c-6.5-1.7-11.8-3.9-11.8-9.9c0-5,3.6-9.2,11.8-9.9V96.1z M57.8,122.4v-19.7
		c6.8,1.7,12.6,3.8,12.6,10C70.4,117.7,66.5,121.8,57.8,122.4z"/>
</g>
</svg>
