<?xml version="1.0" encoding="utf-8"?>
<!-- Generator: Adobe Illustrator 23.1.0, SVG Export Plug-In . SVG Version: 6.00 Build 0)  -->
<svg version="1.1" id="Capa_1" xmlns="http://www.w3.org/2000/svg" xmlns:xlink="http://www.w3.org/1999/xlink" x="0px" y="0px"
	 viewBox="0 0 512 550.2" style="enable-background:new 0 0 512 550.2;" xml:space="preserve">
<style type="text/css">
	.st0{fill:#AB519A;}
	.st1{fill:#020204;}
</style>
<g>
	<path fill="#ffffff" d="M358.8,326.8c9.8,0,17.8-8,17.8-17.8c0-4.8-1.9-9.2-5.2-12.6c-3.4-3.4-7.8-5.2-12.6-5.2
		c-9.8,0-17.8,8-17.8,17.8C341,318.8,349,326.8,358.8,326.8z"/>
	<path fill="#ffffff" d="M420,261.7v-77.2c0-20.5-16.7-37.2-37.2-37.2h-22l-23.3-41.9c-4.1-7.4-11.9-12-20.4-12c-3.9,0-7.9,1-11.3,2.9
		l-91.6,51H111.8c-20.5,0-37.2,16.7-37.2,37.2v238c0,20.5,16.7,37.2,37.2,37.2h271c20.5,0,37.2-16.7,37.2-37.2v-67.4h17.3v-93.4H420
		z M378.8,179.7l-7.5-13.5h11.5c8.3,0,15.4,5.6,17.6,13.5H378.8z M156,179.7h-39.8c-5.2,0-9.4,4.2-9.4,9.4s4.2,9.4,9.4,9.4h285v63.2
		h-48.2c-24.9,0-45.2,20.3-45.2,45.2v3c0,24.9,20.3,45.2,45.2,45.2h48.2l0,67.4c0,10.1-8.2,18.3-18.3,18.3h-271
		c-10.1,0-18.3-8.2-18.3-18.3v-238c0-10.1,8.2-18.3,18.3-18.3h68.4L156,179.7z M326.6,306.9c0-14.5,11.8-26.3,26.3-26.3h65.5v55.7
		h-65.5c-14.5,0-26.3-11.8-26.3-26.3V306.9z M194.8,179.7L315,112.8l0,0c1-0.5,2.2-0.7,3.3-0.3c1.2,0.3,2.1,1.1,2.7,2.1l36.2,65.1
		H194.8z"/>
</g>
</svg>
